# xmcd CD database file
#
# Track frame offsets:
#	150
#	4635
#	9253
#	14473
#	18910
#	23862
#	32053
#	39307
#	43677
#	52203
#	59078
#	69568
#	76596
#	88469
#	93149
#	98017
#	107720
#	114737
#	122615
#	129942
#
# Disc length: 1787 seconds
#
# Revision: 0
# Processed by: cddbd v1.5.2PL0 Copyright (c) Steve Scherf et al.
# Submitted via: CDex 1.51
#
DISCID=f606f914
DTITLE=Bronwyn Bedford - Instruments for Everybody - Trumpet
DYEAR=2005
DGENRE=Jazz
TTITLE0=G Whizz
TTITLE1=F-ortress F
TTITLE2=Groovy Friends
TTITLE3=Oldy Moldy
TTITLE4=Easy 3
TTITLE5=Party for Three
TTITLE6=Dorian Dude
TTITLE7=Disco Man
TTITLE8=Number Crunch
TTITLE9=Funky Space Journey
TTITLE10=Holidays
TTITLE11=Cowboy Carnival
TTITLE12=James Pond
TTITLE13=Boogie Woogie
TTITLE14=Bid Band
TTITLE15=Jazz Mood
TTITLE16=Happy Scales
TTITLE17=The Journey
TTITLE18=Rat Attack
TTITLE19=Jingle Bells
EXTD=YEAR: 2005
EXTT0=
EXTT1=
EXTT2=
EXTT3=
EXTT4=
EXTT5=
EXTT6=
EXTT7=
EXTT8=
EXTT9=
EXTT10=
EXTT11=
EXTT12=
EXTT13=
EXTT14=
EXTT15=
EXTT16=
EXTT17=
EXTT18=
EXTT19=
PLAYORDER=
